<svg id="Group_54" data-name="Group 54" xmlns="http://www.w3.org/2000/svg" width="101.707" height="62.647" viewBox="0 0 101.707 62.647">
  <path id="Path_7651" data-name="Path 7651" d="M743.911,239.735h7.355a3.146,3.146,0,0,0,3.147-3.147V217.706a3.148,3.148,0,0,0-2.7-3.116l-20.817-2.974L717.51,195.257a3.148,3.148,0,0,0-2.436-1.154H683.6a3.145,3.145,0,0,0-2.655,1.457L670.86,211.412h-7.713A3.146,3.146,0,0,0,660,214.559v22.03a3.146,3.146,0,0,0,3.147,3.147h8.928a11.018,11.018,0,0,0,19.908,0H724a11.018,11.018,0,0,0,19.909,0Zm-9.954,0a4.721,4.721,0,1,1,4.721-4.721A4.72,4.72,0,0,1,733.956,239.735Zm-51.927,0a4.721,4.721,0,1,1,4.721-4.721A4.72,4.72,0,0,1,682.03,239.735ZM722.6,211.412H678.321l7.01-11.015h28.251Zm6.417,6.294,19.106,2.73v13.005H744.86a11.016,11.016,0,0,0-21.806,0H692.933a11.016,11.016,0,0,0-21.806,0h-4.832V217.706h62.718Z" transform="translate(-652.706 -188.859)" fill="#fff" fill-rule="evenodd"/>
  <path id="Path_7655" data-name="Path 7655" d="M552.2,1199.105v-9.776s-17.108-3.055-19.185-3.055H511.876l-2.933,17.964,7.577,3.666h10.02l4.277-9.409,6.966.611,2.689,5.132s3.544,3.666,5.377,3.055,6.6-.978,6.844-1.833S552.2,1199.105,552.2,1199.105Z" transform="translate(-453.821 -1159.65)" fill="#fff"/>
  <rect id="Rectangle_63" data-name="Rectangle 63" width="62.647" height="62.647" rx="31.323" transform="translate(0)" fill="#010815"/>
</svg>
