<svg id="Group_53" data-name="Group 53" xmlns="http://www.w3.org/2000/svg" width="101.707" height="62.647" viewBox="0 0 101.707 62.647">
  <path id="Path_7651" data-name="Path 7651" d="M670.5,239.735h-7.355A3.146,3.146,0,0,1,660,236.588V217.706a3.148,3.148,0,0,1,2.7-3.116l20.817-2.974L696.9,195.257a3.148,3.148,0,0,1,2.436-1.154H730.81a3.145,3.145,0,0,1,2.655,1.457l10.088,15.852h7.713a3.146,3.146,0,0,1,3.147,3.147v22.03a3.146,3.146,0,0,1-3.147,3.147h-8.928a11.018,11.018,0,0,1-19.908,0H690.41a11.018,11.018,0,0,1-19.908,0Zm9.954,0a4.721,4.721,0,1,0-4.721-4.721A4.72,4.72,0,0,0,680.456,239.735Zm51.927,0a4.721,4.721,0,1,0-4.721-4.721A4.72,4.72,0,0,0,732.383,239.735Zm-40.566-28.324h44.275l-7.01-11.015H700.83Zm-6.417,6.294-19.106,2.73v13.005h3.259a11.016,11.016,0,0,1,21.806,0H721.48a11.016,11.016,0,0,1,21.806,0h4.832V217.706H685.4Z" transform="translate(-660 -188.859)" fill="#fff" fill-rule="evenodd"/>
  <path id="Path_7655" data-name="Path 7655" d="M509.482,1199.105v-9.776s17.108-3.055,19.185-3.055h21.141l2.933,17.964-7.577,3.666h-10.02l-4.277-9.409-6.966.611-2.689,5.132s-3.544,3.666-5.377,3.055-6.6-.978-6.844-1.833S509.482,1199.105,509.482,1199.105Z" transform="translate(-506.155 -1159.65)" fill="#fff"/>
  <rect id="Rectangle_63" data-name="Rectangle 63" width="62.647" height="62.647" rx="31.323" transform="translate(39.06 0)" fill="#010815"/>
  <path id="Path_7653" data-name="Path 7653" d="M774.342,83.46h0a15.046,15.046,0,1,1,3.872-3.871l8.691,8.692a2.737,2.737,0,0,1-3.871,3.871ZM756.228,71.055a9.581,9.581,0,1,0,9.581-9.581A9.58,9.58,0,0,0,756.228,71.055Z" transform="translate(-705.141 -41.16)" fill="#fff" fill-rule="evenodd"/>
</svg>
