<svg xmlns="http://www.w3.org/2000/svg" width="68.958" height="58.07" viewBox="0 0 68.958 58.07">
  <g id="noun_selection_3777015" transform="translate(-15.492)">
    <g id="Group_33" data-name="Group 33" transform="translate(15.492 0)">
      <path id="Path_46" data-name="Path 46" d="M46.327,21.732a6.871,6.871,0,0,1,4.863,2.032,6.49,6.49,0,0,1,1.742,2.976,9.727,9.727,0,1,0-13.211,0A7.013,7.013,0,0,1,46.327,21.732Z" transform="translate(-11.848 -9.9)" fill="#fff"/>
      <ellipse id="Ellipse_16" data-name="Ellipse 16" cx="9.727" cy="9.727" rx="9.727" ry="9.727" transform="translate(0 0)" fill="#fff"/>
      <ellipse id="Ellipse_17" data-name="Ellipse 17" cx="9.727" cy="9.727" rx="9.727" ry="9.727" transform="translate(49.505 0)" fill="#fff"/>
      <path id="Path_47" data-name="Path 47" d="M63.968,48.121a3.418,3.418,0,0,0-2.9,1.6v-.073a3.485,3.485,0,0,0-3.484-3.484,3.418,3.418,0,0,0-2.9,1.6v-.073A3.485,3.485,0,0,0,51.193,44.2a3.418,3.418,0,0,0-2.9,1.6V34.184A3.47,3.47,0,0,0,44.805,30.7h0a3.485,3.485,0,0,0-3.484,3.484V56.832a.49.49,0,0,1-.29.436.43.43,0,0,1-.508-.073L37.038,53.71a3.515,3.515,0,0,0-4.428-.436,3.741,3.741,0,0,0-1.524,2.4,3.554,3.554,0,0,0,.8,2.758L40.6,68.954a12.964,12.964,0,0,0,10.017,4.718h5.444a11.4,11.4,0,0,0,11.4-11.4V51.46A3.458,3.458,0,0,0,63.968,48.121Z" transform="translate(-10.326 -15.602)" fill="#fff"/>
    </g>
  </g>
</svg>
