<svg xmlns="http://www.w3.org/2000/svg" width="43.251" height="61.256" viewBox="0 0 43.251 61.256">
  <g id="noun_sell_2435347" transform="translate(-231.259 -2.5)">
    <g id="Group_49" data-name="Group 49" transform="translate(231.259 2.5)">
      <path id="Path_7649" data-name="Path 7649" d="M73.035,66.673a6.933,6.933,0,0,0-5.094-2.257H65.877a2.171,2.171,0,0,1-1.676-.774,2.142,2.142,0,0,1-.58-1.741,2.324,2.324,0,0,1,2.386-2h2.386a1.443,1.443,0,0,1,1.419,1.161.9.9,0,0,0,.9.709h2.708a1.035,1.035,0,0,0,.709-.322.97.97,0,0,0,.258-.709,5.908,5.908,0,0,0-5.223-5.352V53.067A.992.992,0,0,0,68.2,52.1H65.491a.992.992,0,0,0-.967.967v2.386a6.816,6.816,0,0,0-5.545,7.415,7.087,7.087,0,0,0,7.157,6.19h1.741a2.171,2.171,0,0,1,1.676.774,2.142,2.142,0,0,1,.58,1.741,2.324,2.324,0,0,1-2.386,2H65.362a1.443,1.443,0,0,1-1.419-1.161.9.9,0,0,0-.9-.709H60.332a1.035,1.035,0,0,0-.709.322.97.97,0,0,0-.258.709,5.908,5.908,0,0,0,5.223,5.352v2.321a.992.992,0,0,0,.967.967h2.708a.992.992,0,0,0,.967-.967V78.021a6.9,6.9,0,0,0,5.545-6A7.019,7.019,0,0,0,73.035,66.673Z" transform="translate(-31.559 -20.118)" fill="#fff"/>
      <path id="Path_7650" data-name="Path 7650" d="M54.922,38.561,56.469,34.5a1.347,1.347,0,0,0-1.225-1.805H36.352L32.289,42.881l-.838-7.157h.58a.646.646,0,0,0,.645-.645V33.145a.646.646,0,0,0-.645-.645h-3.16a.646.646,0,0,0-.645.645v1.934a.646.646,0,0,0,.645.645h.58l-.838,7.157-4-9.994a8.916,8.916,0,0,0-6.964,7.738l-1.161,10.9a2.017,2.017,0,0,0,1.676,2.257c1.161.258,2.773.451,4.385.645l1.032,17.345a2.714,2.714,0,0,0,2.773,2.579H34.74a2.805,2.805,0,0,0,2.773-2.579l1.419-29.725A2.67,2.67,0,0,1,41.639,39.4H53.761A1.3,1.3,0,0,0,54.922,38.561Z" transform="translate(-16.477 -13.156)" fill="#fff"/>
      <circle id="Ellipse_20" data-name="Ellipse 20" cx="8.834" cy="8.834" r="8.834" transform="translate(5.109)" fill="#fff"/>
    </g>
  </g>
</svg>
