<svg id="noun_Secured_3008506" xmlns="http://www.w3.org/2000/svg" width="53.622" height="59.71" viewBox="0 0 53.622 59.71">
  <path id="Path_7654" data-name="Path 7654" d="M61.084,15.747a1.178,1.178,0,0,0-1.194-1.074c-9.907-.358-18.262-3.581-24.827-9.429a1.255,1.255,0,0,0-1.552,0c-6.326,5.61-14.681,8.713-24.827,9.429A1.07,1.07,0,0,0,7.61,15.747c0,.358-2.626,34.018,26.259,48.818.119.119.239.119.477.119a1.076,1.076,0,0,0,.6-.119C64.068,49.168,61.084,16.105,61.084,15.747ZM46.522,28.161,31.363,43.2a1.289,1.289,0,0,1-.836.358,1.084,1.084,0,0,1-.836-.358l-6.326-6.326A1.182,1.182,0,0,1,25.037,35.2l5.491,5.491L44.851,26.37a1.154,1.154,0,0,1,1.671,0A1.3,1.3,0,0,1,46.522,28.161Z" transform="translate(-7.548 -4.975)" fill="#fff"/>
</svg>
